<svg xmlns="http://www.w3.org/2000/svg" viewBox="0 0 512 512" width="512" height="512">
  <rect width="512" height="512" rx="104" fill="#0a0a0a"/>
  <g transform="translate(-122.092,-125.046) scale(0.73846)">
<path fill="#E8E8E8" d="M505.342 277.647C507.252 277.481 509.167 277.383 511.084 277.356C551.191 277.01 572.092 311.864 589.534 342.191L608.521 375.146C644.632 438.171 680.049 501.592 714.763 565.398L739.053 609.35C743.975 618.219 750.194 628.782 754.087 637.924C759.126 649.809 761.679 662.599 761.59 675.508C761.548 696.506 753.124 717.661 738.177 732.497C727.955 742.837 714.968 750.009 700.773 753.156C689.917 755.594 678.512 755.085 667.406 755.073L635.164 755.021L519.75 754.965L393.953 755.024L356.969 755.135C333.697 755.208 317.4 755.675 297.068 741.678C279.651 729.613 267.743 711.121 263.966 690.273C257.072 652.445 275.029 628.183 292.286 597.166L329.97 528.795C352.057 488.759 374.357 448.842 396.87 409.044C407.45 389.844 418.246 370.763 429.255 351.806C447.868 319.597 464.885 284.899 505.342 277.647Z"/><path fill="#0A0A0A" d="M470.003 466.597C473.248 463.722 476.525 460.315 479.729 457.358C499.996 438.66 516.826 433.521 539.978 450.103C540.297 450.391 540.617 450.679 540.937 450.968L542.408 451.014L542.571 451.269C545.868 453.572 554.79 462.419 557.632 465.442L556.934 466.588C562.58 472.598 573.433 483.994 578.257 490.3C579.105 491.121 579.907 492.131 580.772 493.031C582.617 494.762 586.497 499.138 587.692 501.333C588.522 502.556 588.415 502.94 588.611 504.382C598.562 514.692 605.753 519.601 614.374 531.671L614.978 531.062C614.663 530.648 613.487 529.412 613.82 528.881C614.522 528.936 617.284 532.171 617.785 532.756L618.931 534.101C619.692 534.978 622.136 537.934 622.835 538.575C623.91 539.494 624.987 540.205 625.547 541.464C625.946 541.992 626.281 542.419 626.694 542.927C627.639 544.367 628.701 545.823 629.706 547.23L628.765 547.665C650.34 597.208 617.934 647.947 564.534 652.493L565.557 651.407C555.005 652.002 546.889 650.282 537.548 645.419C516.786 637.11 507.17 636.967 487.122 646.441C481.56 649.073 475.024 652.278 469.065 653.604C450.657 657.701 431.749 653.182 416.002 643.403C400.393 633.71 389.373 618.113 385.45 600.163C380.635 579.043 384.681 563.273 395.838 545.536L397.338 544.175C398.01 543.101 400.356 540.392 401.286 539.468L401.377 538.872C403.151 536.858 403.453 536.395 405.629 534.934C407.304 533.57 412.776 527.463 415.252 525.128C415.441 524.885 416.607 523.88 416.912 523.607L434.819 506.117C435.149 502.88 436.201 501.855 438.6 499.634C439.82 497.885 442.081 495.145 443.57 493.642C450.401 485.761 458.767 478.392 465.915 470.564C466.069 469.215 466.584 469.261 467.839 468.57L470.003 466.597Z"/><path fill="#0A0A0A" d="M415.252 525.128C415.21 525.317 415.167 525.506 415.124 525.695C388.782 551.636 399.894 603.457 425.504 626.012C436.137 636.676 457.058 644.607 472.295 644.966C476.117 645.057 479.859 643.627 482.432 645.897C487.061 644.56 493.247 641.74 497.878 639.852L497.825 640.643C495.731 641.628 486.889 644.867 485.961 645.597L487.122 646.441C481.56 649.073 475.024 652.278 469.065 653.604C450.657 657.701 431.749 653.182 416.002 643.403C400.393 633.71 389.373 618.113 385.45 600.163C380.635 579.043 384.681 563.273 395.838 545.536L397.338 544.175C398.01 543.101 400.356 540.392 401.286 539.468L401.377 538.872C403.151 536.858 403.453 536.395 405.629 534.934C407.304 533.57 412.776 527.463 415.252 525.128Z"/><path fill="#0A0A0A" d="M397.338 544.175L398.11 545.081C381.151 580.443 395.927 625.149 431.5 641.879C447.097 649.215 467.426 652.625 483.904 646.426C484.595 646.164 485.281 645.888 485.961 645.597L487.122 646.441C481.56 649.073 475.024 652.278 469.065 653.604C450.657 657.701 431.749 653.182 416.002 643.403C400.393 633.71 389.373 618.113 385.45 600.163C380.635 579.043 384.681 563.273 395.838 545.536L397.338 544.175Z"/><path fill="#D5D4D5" d="M401.286 539.468L401.377 538.872C403.151 536.858 403.453 536.395 405.629 534.934C403.574 539.745 399.662 543.664 397.334 549.062C394.008 556.774 392.954 561.715 392.483 570.415C389.809 619.768 432.931 658.618 481.715 646.176C481.954 646.083 482.193 645.99 482.432 645.897C487.061 644.56 493.247 641.74 497.878 639.852L497.825 640.643C495.731 641.628 486.889 644.867 485.961 645.597C485.281 645.888 484.595 646.164 483.904 646.426C467.426 652.625 447.097 649.215 431.5 641.879C395.927 625.149 381.151 580.443 398.11 545.081L397.338 544.175C398.01 543.101 400.356 540.392 401.286 539.468Z"/><path fill="#0A0A0A" d="M397.338 544.175C398.01 543.101 400.356 540.392 401.286 539.468C400.311 542.257 399.929 542.536 398.11 545.081L397.338 544.175Z"/><path fill="#0A0A0A" d="M617.349 534.635L618.931 534.101C619.692 534.978 622.136 537.934 622.835 538.575C623.91 539.494 624.987 540.205 625.547 541.464C625.946 541.992 626.281 542.419 626.694 542.927C627.639 544.367 628.701 545.823 629.706 547.23L628.765 547.665C650.34 597.208 617.934 647.947 564.534 652.493L565.557 651.407C555.005 652.002 546.889 650.282 537.548 645.419L537.963 644.458C552.326 649.517 569.5 645.895 582.873 639.449C614.68 624.118 629.739 588.548 624.838 554.507C623.87 547.785 620.419 540.696 617.349 534.635Z"/><path fill="#E8E8E8" d="M622.835 538.575C623.91 539.494 624.987 540.205 625.547 541.464C625.946 541.992 626.281 542.419 626.694 542.927C627.639 544.367 628.701 545.823 629.706 547.23L628.765 547.665C650.34 597.208 617.934 647.947 564.534 652.493L565.557 651.407C568.903 651.047 572.065 650.687 575.389 650.029C624.854 640.235 650.693 581.515 622.828 539.124C622.831 538.941 622.833 538.758 622.835 538.575Z"/><path fill="#414041" d="M628.765 547.665C627.23 545.784 625.77 543.875 625.547 541.464C625.946 541.992 626.281 542.419 626.694 542.927C627.639 544.367 628.701 545.823 629.706 547.23L628.765 547.665Z"/><path fill="#AFADAF" d="M614.978 531.062C614.663 530.648 613.487 529.412 613.82 528.881C614.522 528.936 617.284 532.171 617.785 532.756L618.931 534.101L617.349 534.635C620.419 540.696 623.87 547.785 624.838 554.507C629.739 588.548 614.68 624.118 582.873 639.449C569.5 645.895 552.326 649.517 537.963 644.458L537.548 645.419C516.786 637.11 507.17 636.967 487.122 646.441L485.961 645.597C486.889 644.867 495.731 641.628 497.825 640.643L497.878 639.852C496.408 639.519 495.031 639.898 493.389 639.796C495.527 638.631 498.539 637.922 500.968 637.752C509.599 636.362 519.46 635.374 527.713 639.449C528.699 639.867 529.992 640.491 530.995 640.719C534.357 642.048 538.192 643.674 541.682 644.456C578.518 652.705 615.411 622.428 622.377 586.916C626.643 565.166 625.944 550.161 614.374 531.671L614.978 531.062Z"/><path fill="#0A0A0A" d="M493.389 639.796C495.527 638.631 498.539 637.922 500.968 637.752L499.458 639.144L499.663 639.692C503.288 639.693 507.509 638.23 510.718 638.095C518.957 637.749 530.669 640.934 537.963 644.458L537.548 645.419C516.786 637.11 507.17 636.967 487.122 646.441L485.961 645.597C486.889 644.867 495.731 641.628 497.825 640.643L497.878 639.852C496.408 639.519 495.031 639.898 493.389 639.796Z"/><path fill="#0A0A0A" d="M614.978 531.062C614.663 530.648 613.487 529.412 613.82 528.881C614.522 528.936 617.284 532.171 617.785 532.756L618.931 534.101L617.349 534.635C616.563 533.424 615.823 532.236 614.978 531.062Z"/><path fill="#414041" d="M527.713 639.449L528.27 638.614C531.113 638.689 537.384 641.344 542.092 641.584C560.454 642.519 577.356 634.175 590.233 621.805C607.803 604.926 615.863 580.233 615.966 556.332C616.007 546.694 614.469 538.052 609.359 529.669C608.264 527.873 604.653 522.676 604.155 521.093C612.829 529.631 616.667 542.404 617.029 554.25C618.366 597.982 588.445 643.727 541.136 642.757C536.956 642.67 534.431 640.319 530.995 640.719C529.992 640.491 528.699 639.867 527.713 639.449Z"/><path fill="#414041" d="M486.157 642.761C483.334 640.856 472.568 641.313 467.867 640.125C424.326 629.122 401.21 580.816 410.887 538.899C411.542 536.06 413.018 530.375 415.64 528.857L416.149 529.053C414.031 532.499 411.856 537.653 411.119 541.633C403.318 583.781 426.902 630.477 470.849 639.869C475.733 640.913 482.596 639.742 487.557 640.856L487.205 642.193L486.157 642.761Z"/><path fill="#939193" d="M415.252 525.128C415.441 524.885 416.607 523.88 416.912 523.607C416.316 527.242 409.35 532.997 407.197 537.219C395.409 560.341 401.803 593.944 416.195 613.975C419.295 618.295 422.834 622.284 426.754 625.878L425.504 626.012C399.894 603.457 388.782 551.636 415.124 525.695C415.167 525.506 415.21 525.317 415.252 525.128Z"/><path fill="#939193" d="M444.57 494.06C454.287 484.45 487.142 453.885 498.106 450.848C499.349 450.503 500.417 449.702 501.701 449.888C485.418 456.381 475.992 466.547 463.621 478.315C453.891 487.448 444.29 496.716 434.819 506.117C435.149 502.88 436.201 501.855 438.6 499.634C439.82 497.885 442.081 495.145 443.57 493.642L444.57 494.06Z"/><path fill="#0A0A0A" d="M438.6 499.634C439.82 497.885 442.081 495.145 443.57 493.642L444.57 494.06C442.597 496.067 440.843 497.924 438.6 499.634Z"/><path fill="#666567" d="M426.754 625.878C442.234 638.145 466.18 648.211 486.157 642.761L487.205 642.193C488.341 641.409 491.89 640.32 493.389 639.796C495.031 639.898 496.408 639.519 497.878 639.852C493.247 641.74 487.061 644.56 482.432 645.897C479.859 643.627 476.117 645.057 472.295 644.966C457.058 644.607 436.137 636.676 425.504 626.012L426.754 625.878Z"/><path fill="#AFADAF" d="M564.096 478.95C568.578 482.128 573.144 487.131 577.394 490.723L578.257 490.3C579.105 491.121 579.907 492.131 580.772 493.031C582.617 494.762 586.497 499.138 587.692 501.333C588.522 502.556 588.415 502.94 588.611 504.382C581.049 496.945 575.024 490.298 566.924 482.684C565.769 481.249 565.047 480.494 564.096 478.95Z"/><path fill="#939193" d="M580.772 493.031C582.617 494.762 586.497 499.138 587.692 501.333C586.562 500.643 581.198 494.826 580.038 493.521L580.772 493.031Z"/><path fill="#0A0A0A" d="M578.257 490.3C579.105 491.121 579.907 492.131 580.772 493.031L580.038 493.521C579.121 492.421 578.401 491.726 577.394 490.723L578.257 490.3Z"/><path fill="#AFADAF" d="M542.571 451.269C545.868 453.572 554.79 462.419 557.632 465.442L556.934 466.588C556.73 466.296 556.528 466.002 556.328 465.708C555.577 465.052 555.008 464.656 554.485 463.827C551.564 460.779 545.74 454.769 542.574 452.231L542.571 451.269Z"/><path fill="#939193" d="M552.616 467.945C554.54 469.263 563.303 477.346 564.096 478.95C565.047 480.494 565.769 481.249 566.924 482.684C562.813 479.45 558.562 473.924 554.185 470.542C553.668 469.673 553.145 468.807 552.616 467.945Z"/><path fill="#414041" d="M548.429 465.176C547.922 464.782 533.76 453.255 534.401 454.248L534.538 454.074C536.629 454.108 547.096 462.505 548.579 464.251L548.429 465.176Z"/><path fill="#666567" d="M548.579 464.251C549.816 465.026 551.883 466.672 552.616 467.945C553.145 468.807 553.668 469.673 554.185 470.542C552.061 468.756 550.589 466.636 548.429 465.176L548.579 464.251Z"/><path fill="#AFADAF" d="M465.915 470.564C466.069 469.215 466.584 469.261 467.839 468.57C467.16 469.419 466.818 470.035 465.915 470.564Z"/><path fill="#414041" d="M542.408 451.014L542.571 451.269L542.574 452.231C541.67 451.714 541.739 451.743 540.937 450.968L542.408 451.014Z"/><path fill="#FF4500" d="M510.322 520.227C528.648 519.563 544.044 533.876 544.715 552.201C545.386 570.526 531.079 585.928 512.754 586.606C494.419 587.285 479.007 572.968 478.335 554.632C477.664 536.297 491.987 520.891 510.322 520.227Z"/><path fill="#0A0A0A" d="M524.927 449.983C527.26 449.186 532.008 452.23 533.888 453.607L533.565 453.557C531.982 453.323 526.01 450.82 524.927 449.983Z"/><path fill="#0A0A0A" d="M629.706 547.23C630.687 548.546 631.632 549.885 632.696 551.133L633.543 550.498L633.094 549.888L633.706 549.199C645.645 564.041 652.802 576.602 653.05 596.006C653.599 639.016 613.678 669.445 572.384 664.79C563.036 663.736 556.296 660.448 547.52 657.361C530.988 651.473 513.265 649.728 495.902 652.28C495.046 652.616 493.897 652.814 492.993 652.949C487.661 653.746 482.924 656.207 477.945 657.879C471.236 661.252 463.283 665.728 456.011 667.514C396.387 682.157 342.07 624.319 375.372 567.61C374.44 567.296 373.615 567.592 373.326 567.182C373.368 566.09 376.396 562.74 378.403 562.628L381.303 559.353C382.688 557.444 384.301 555.953 385.853 554.145C386.686 552.463 387.646 551.131 389.564 551.48L388.954 552.932L389.847 553.554C381.051 568.806 379.221 586.757 383.783 603.697C388.582 621.532 400.281 636.723 416.299 645.917C432.796 655.298 452.489 659.296 471.084 654.248C482.589 651.125 491.608 644.839 503.276 642.719C528.064 638.217 539.582 653.239 564.534 652.493C617.934 647.947 650.34 597.208 628.765 547.665L629.706 547.23Z"/><path fill="#0A0A0A" d="M633.706 549.199C645.645 564.041 652.802 576.602 653.05 596.006C653.599 639.016 613.678 669.445 572.384 664.79C563.036 663.736 556.296 660.448 547.52 657.361C530.988 651.473 513.265 649.728 495.902 652.28C495.2 651.953 495.205 651.849 494.565 651.209C517.053 645.215 536.029 653.609 557.294 657.955C577.145 662.011 599.057 657.327 615.746 645.476C631.166 634.66 641.572 618.082 644.61 599.494C647.567 581.648 643.979 565.212 633.543 550.498L633.094 549.888L633.706 549.199Z"/><path fill="#0A0A0A" d="M378.403 562.628L381.303 559.353L381.642 560.175C372.619 573.211 369.836 592.909 372.891 608.275C376.402 625.941 386.186 640.365 401.136 650.377C417.852 661.572 438.945 666.74 458.826 662.863C464.998 661.66 471.56 659.192 477.434 656.942L477.945 657.879C471.236 661.252 463.283 665.728 456.011 667.514C396.387 682.157 342.07 624.319 375.372 567.61C374.44 567.296 373.615 567.592 373.326 567.182C373.368 566.09 376.396 562.74 378.403 562.628Z"/><path fill="#E8E8E8" d="M375.372 567.61C374.44 567.296 373.615 567.592 373.326 567.182C373.368 566.09 376.396 562.74 378.403 562.628C377.554 564.648 376.857 565.918 375.372 567.61Z"/><path fill="#E8E8E8" d="M633.543 550.498C643.979 565.212 647.567 581.648 644.61 599.494C641.572 618.082 631.166 634.66 615.746 645.476C599.057 657.327 577.145 662.011 557.294 657.955C536.029 653.609 517.053 645.215 494.565 651.209C495.205 651.849 495.2 651.953 495.902 652.28C495.046 652.616 493.897 652.814 492.993 652.949C487.661 653.746 482.924 656.207 477.945 657.879L477.434 656.942C471.56 659.192 464.998 661.66 458.826 662.863C438.945 666.74 417.852 661.572 401.136 650.377C386.186 640.365 376.402 625.941 372.891 608.275C369.836 592.909 372.619 573.211 381.642 560.175C382.371 559.375 382.786 558.882 383.456 558.027L384.605 558.41C380.468 564.574 377.644 572.181 375.996 579.391C372.258 596.44 375.371 614.276 384.664 629.051C400.787 654.657 436.186 668.497 464.902 659.585C482.309 654.183 488.858 645.204 509.642 644.304C527.592 642.307 541.859 652.727 558.283 656.313C595.467 664.433 634.53 638.877 642.264 602.127C646.048 584.534 642.601 566.158 632.696 551.133L633.543 550.498Z"/><path fill="#414041" d="M494.565 651.209C495.205 651.849 495.2 651.953 495.902 652.28C495.046 652.616 493.897 652.814 492.993 652.949C487.661 653.746 482.924 656.207 477.945 657.879L477.434 656.942C480.508 655.756 492.047 651.758 494.565 651.209Z"/><path fill="#E8E8E8" d="M385.853 554.145C386.686 552.463 387.646 551.131 389.564 551.48L388.954 552.932C387.39 554.74 386.114 556.598 384.605 558.41L383.456 558.027C382.786 558.882 382.371 559.375 381.642 560.175L381.303 559.353C382.688 557.444 384.301 555.953 385.853 554.145Z"/><path fill="#666567" d="M385.853 554.145C385.707 556.164 384.971 556.256 383.456 558.027C382.786 558.882 382.371 559.375 381.642 560.175L381.303 559.353C382.688 557.444 384.301 555.953 385.853 554.145Z"/><path fill="#0A0A0A" d="M355.163 504.071C374.909 465.414 395.048 426.958 415.576 388.71C430.099 361.556 444.347 331.397 463.731 307.484C480.915 286.285 511.364 275.04 536.517 288.606C564.73 303.393 579.718 334.277 594.4 361.301L618.562 405.402L651.419 466.758C659.817 482.138 670.719 500.923 678.24 516.326L677.301 516.792C656.982 480.297 636.365 443.969 615.453 407.812C601.101 383.294 586.718 357.842 569.189 335.417C558.095 321.42 540.74 308.813 522.853 305.712C468.662 296.317 438.372 360.828 416.201 398.779C395.789 433.866 375.753 469.171 356.097 504.686L355.163 504.071Z"/><path fill="#0A0A0A" d="M366.71 505.645C379.463 480.404 393.024 456.112 406.024 431.247C413.88 416.042 421.938 400.943 430.196 385.953C444.765 358.98 464.142 321.753 494.993 312.001C554.192 293.287 586.698 369.282 608.988 408.951C631.391 449.083 653.466 489.398 675.21 529.891L673.968 530.026C662.918 508.663 646.761 482.828 634.59 461.895C623.639 442.881 612.413 424.026 600.916 405.337C579.331 370.168 548.546 319.017 498.385 331.939C461.938 341.328 441.856 383.222 423.199 412.567C403.905 442.913 385.852 474.841 367.648 506.127L366.71 505.645Z"/><path fill="#0A0A0A" d="M373.617 513.317C392.887 478.856 411.903 443.947 431.392 409.898C449.147 378.878 469.454 334.674 510.357 332.506C557.648 330 582.966 384.409 602.364 418.812C622.201 453.994 640.904 489.018 661.143 523.578L659.982 523.983C647.201 501.93 633.191 480.094 619.879 458.287C603.814 431.972 587.885 404.927 568.808 380.702C542.636 347.465 498.056 340.936 467.903 372.847C449.496 392.328 435.537 415.923 421.096 438.455C411.413 453.527 401.924 468.723 392.631 484.04C386.697 493.661 380.188 503.846 374.636 513.624L373.617 513.317Z"/><path fill="#0A0A0A" d="M386.688 508.798C402.743 480.781 419.072 452.922 435.673 425.225C451.561 398.875 468.02 364.127 500.11 355.514C515.352 351.424 531.564 354.429 544.927 362.592C565.463 375.009 577.724 397.897 589.542 418.038C598.033 432.461 606.396 446.958 614.629 461.529C625.931 481.536 638.404 501.465 649.671 521.655L648.746 522.253C633.652 497.736 618.154 473.47 602.259 449.465C591.496 433.02 576.653 409.641 563.685 395.14C558.235 388.927 551.835 383.618 544.723 379.408C521.321 365.644 492.956 369.13 473.46 388.151C453.822 407.312 438.189 433.132 422.65 455.749C410.923 472.816 398.186 491.447 387.731 509.283L386.688 508.798Z"/><path fill="#0A0A0A" d="M399.223 503.773L440.113 437.94C450.39 421.581 460.093 404.137 473.66 390.458C501.043 362.847 539.752 367.962 563.012 397.824C572.969 410.606 580.596 423.652 588.955 437.485C604.992 463.022 619.675 490.189 636.248 515.335L634.966 515.519C621.918 496.011 608.714 476.607 595.355 457.311C581.891 437.65 561.879 405.817 541.079 394.762L540.551 395.908C529.28 389.767 518.526 388.175 505.903 389.874L505.435 388.937C479.206 394.161 461.948 418.949 446.695 439.014C431.244 459.564 416.347 480.525 402.021 501.875C401.236 503.035 400.466 504.205 399.713 505.386L399.223 503.773Z"/><path fill="#E8E8E8" d="M505.435 388.937C516.997 386.329 530.783 389.138 541.079 394.762L540.551 395.908C529.28 389.767 518.526 388.175 505.903 389.874L505.435 388.937Z"/><path fill="#0A0A0A" d="M505.903 389.874C518.526 388.175 529.28 389.767 540.551 395.908C562.052 408.468 579.542 440.861 592.854 462.223C603.55 479.282 614.398 496.246 625.397 513.111L623.944 513.02C616.618 501.882 605.152 486.571 597.032 475.855C583.73 458.303 564.13 428.65 547.674 415.173L546.997 416.045C535.798 408.036 528.172 403.936 513.936 404.358C513.674 404.341 513.412 404.323 513.149 404.305C510.325 404.527 507.52 404.949 504.756 405.568C494.245 407.86 486.403 414.031 478.629 420.861C479.302 419.625 479.438 419.515 479.771 418.182C470.239 426.001 462.24 436.486 454.383 446.001C438.394 465.451 422.974 485.361 408.142 505.706L406.965 505.282L444.349 448.814C460.8 424.286 475.448 397.991 505.903 389.874Z"/><path fill="#D5D4D5" d="M479.771 418.182C485.808 410.629 502.925 403.634 512.487 403.487C514.101 403.678 514.932 403.792 516.572 403.748C515.215 403.696 514.042 403.488 513.149 404.305C510.325 404.527 507.52 404.949 504.756 405.568C494.245 407.86 486.403 414.031 478.629 420.861C479.302 419.625 479.438 419.515 479.771 418.182Z"/><path fill="#AFADAF" d="M512.487 403.487C524.27 401.847 538.892 407.371 547.674 415.173L546.997 416.045C535.798 408.036 528.172 403.936 513.936 404.358C513.674 404.341 513.412 404.323 513.149 404.305C514.042 403.488 515.215 403.696 516.572 403.748C514.932 403.792 514.101 403.678 512.487 403.487Z"/><path fill="#0A0A0A" d="M513.149 404.305C513.412 404.323 513.674 404.341 513.936 404.358C528.172 403.936 535.798 408.036 546.997 416.045C559.772 427.177 573.552 449.009 583.38 463.572C594.991 480.998 606.815 498.281 618.85 515.416L617.432 515.46C607.709 502.285 596.661 488.654 586.475 475.75C576.068 462.566 561.984 443.893 549.723 432.652C548.139 430.473 542.909 426.69 540.599 425.187C530.699 418.405 518.521 415.809 506.716 417.965C495.156 420.108 486.129 426.592 477.743 434.527C460.342 451.848 444.755 471.08 428.968 489.848C424.425 495.249 419.626 501.996 415.135 507.108L414.286 506.326C425.638 490.894 436.342 474.681 447.992 459.224C458.17 445.72 465.854 432.718 478.629 420.861C486.403 414.031 494.245 407.86 504.756 405.568C507.52 404.949 510.325 404.527 513.149 404.305Z"/><path fill="#0A0A0A" d="M477.743 434.527C486.129 426.592 495.156 420.108 506.716 417.965C518.521 415.809 530.699 418.405 540.599 425.187C542.909 426.69 548.139 430.473 549.723 432.652C549.749 433.873 549.929 433.82 550.749 434.944L551.412 435.868C571.201 459.037 591.069 488.288 609.41 513.063L607.936 512.96C590.823 492.029 570.728 467.968 551.92 448.69L550.447 449.065C550.1 448.647 549.752 448.23 549.405 447.812C547.965 446.551 546.981 445.513 545.723 444.068C545.09 443.647 542.09 440.769 541.207 440.01C540.751 439.724 540.81 439.796 540.482 439.383C539.463 438.621 538.647 438.031 537.566 437.339C512.407 421.805 496.047 432.387 476.771 450.228L475.717 449.534C457.311 467.894 439.608 486.943 422.644 506.643L421.744 505.998C427.58 497.607 436.366 487.109 442.692 478.853C453.478 464.778 465.557 448.547 478.076 436.133L477.743 434.527Z"/><path fill="#AFADAF" d="M477.743 434.527C486.129 426.592 495.156 420.108 506.716 417.965C518.521 415.809 530.699 418.405 540.599 425.187L540.837 426.584C517.245 411.264 497.206 417.691 478.076 436.133L477.743 434.527Z"/><path fill="#939193" d="M475.717 449.534C492.288 430.524 515.911 422.093 538.306 436.64L537.566 437.339C512.407 421.805 496.047 432.387 476.771 450.228L475.717 449.534Z"/><path fill="#AFADAF" d="M538.306 436.64C542.839 439.526 548.26 444.73 551.92 448.69L550.447 449.065C550.1 448.647 549.752 448.23 549.405 447.812C547.965 446.551 546.981 445.513 545.723 444.068C545.09 443.647 542.09 440.769 541.207 440.01C540.751 439.724 540.81 439.796 540.482 439.383C539.463 438.621 538.647 438.031 537.566 437.339L538.306 436.64Z"/><path fill="#939193" d="M545.723 444.068C547.798 445.431 548.06 445.77 549.405 447.812C547.965 446.551 546.981 445.513 545.723 444.068Z"/><path fill="#AFADAF" d="M540.599 425.187C542.909 426.69 548.139 430.473 549.723 432.652C549.749 433.873 549.929 433.82 550.749 434.944L551.412 435.868C549.22 433.905 546.996 431.607 544.693 429.523C544.261 429.236 544.303 429.29 543.977 428.894C542.862 428.028 542.025 427.365 540.837 426.584L540.599 425.187Z"/><path fill="#0A0A0A" d="M476.771 450.228C496.047 432.387 512.407 421.805 537.566 437.339C538.647 438.031 539.463 438.621 540.482 439.383C540.81 439.796 540.751 439.724 541.207 440.01C542.09 440.769 545.09 443.647 545.723 444.068C546.981 445.513 547.965 446.551 549.405 447.812C549.752 448.23 550.1 448.647 550.447 449.065C562.351 461.562 573.845 476.553 584.454 490.205C588.783 495.774 595.531 503.43 599.261 508.791L598.355 509.221C585.822 494.287 571.192 479.494 557.632 465.442C554.79 462.419 545.868 453.572 542.571 451.269L542.408 451.014L540.937 450.968C540.617 450.679 540.297 450.391 539.978 450.103C516.826 433.521 499.996 438.66 479.729 457.358C476.525 460.315 473.248 463.722 470.003 466.597L469.775 464.937C459.413 475.071 444.31 489.08 435.23 499.713L433.953 499.129C445.126 485.478 464.297 462.068 476.771 450.228Z"/><path fill="#666567" d="M469.775 464.937C471.143 463.229 474.099 460.814 475.777 459.222C495.902 440.131 516.163 431.022 540.485 449.317L539.978 450.103C516.826 433.521 499.996 438.66 479.729 457.358C476.525 460.315 473.248 463.722 470.003 466.597L469.775 464.937Z"/><path fill="#AFADAF" d="M540.485 449.317C541.118 449.892 541.759 450.458 542.408 451.014L540.937 450.968C540.617 450.679 540.297 450.391 539.978 450.103L540.485 449.317Z"/><path fill="#0A0A0A" d="M648.141 565.138C653.523 572.97 657.736 580.014 660.3 589.247C668.115 617.392 656.788 644.384 632.938 660.645C616.984 671.301 597.505 675.319 578.637 671.845C571.634 670.501 565.013 667.328 557.876 666.379L557.522 665.436C560.974 665.229 569.368 667.118 573.376 667.521C589.243 669.119 605.439 666.371 619.46 658.803C636.212 649.864 648.599 634.485 653.761 616.212C658.417 599.56 656.25 581.74 647.74 566.689L648.141 565.138Z"/><path fill="#0A0A0A" d="M367.989 574.109L368.728 575.221C360.838 589.996 359.139 607.301 364.005 623.329C369.161 640.397 382.104 654.726 397.74 663.012C417.062 673.165 439.619 675.251 460.476 668.815C462.049 668.326 463.824 667.783 465.365 667.213L465.744 668.257C439.408 680.968 412.465 681.562 386.976 665.983C372.202 657.015 361.643 642.495 357.664 625.677C353.314 606.827 357.924 590.121 367.989 574.109Z"/><path fill="#0A0A0A" d="M660.27 578.296C665.858 587.98 669.436 596.145 671.17 607.25C679.189 658.6 622.777 694.51 577.228 677.207L577.895 676.273C593.826 678.064 607.446 677.89 622.489 671.707C661.981 655.473 676.899 616.898 659.324 578.727L660.27 578.296Z"/><path fill="#0A0A0A" d="M447.445 680.445C397.181 700.718 334.442 661.552 348.679 604.401C349.794 599.926 356.539 583.828 359.773 581.264L360.134 581.695C352.211 594.742 349.369 611.025 351.774 626.122C354.397 642.593 365.312 657.492 378.847 667.096C393.312 677.36 411.939 681.397 429.515 681.456C434.205 681.472 442.089 679.981 446.897 679.145L447.445 680.445Z"/><path fill="#0A0A0A" d="M671.523 589.817C690.832 624.771 683.382 661.965 647.317 681.713C629.916 691.093 609.519 693.238 590.548 687.682C590.138 687.562 589.731 687.434 589.325 687.301L590.12 686.272C647.312 695.013 695.431 648.019 670.948 591.039L671.523 589.817Z"/><path fill="#0A0A0A" d="M345.562 597.764L346.171 598.687C331.972 635.556 348.468 670.469 385.038 684.619C400.756 690.7 421.575 692.137 437.822 687.258L438.68 688.233C420.288 694.502 405.965 696.523 386.827 691.156C345.193 679.479 325.479 636.753 345.562 597.764Z"/><path fill="#0A0A0A" d="M337.087 601.249L337.707 602.235C320.988 636.417 333.091 676.534 367.771 692.66C384.208 700.303 407.571 703.897 425.025 698.287L424.711 699.639C423.939 699.91 423.163 700.17 422.383 700.418C402.321 706.942 380.483 705.166 361.74 695.484C346.51 687.821 335.007 674.349 329.825 658.106C323.506 637.893 327.434 619.488 337.087 601.249Z"/><path fill="#0A0A0A" d="M681.142 596.282C687.667 608.058 691.355 617.019 692.928 630.548C697.365 668.726 665.128 698.71 628.487 700.516C618.948 700.986 612.042 700.33 602.71 698.484L602.121 697.3C616.223 698.86 626.366 698.57 639.865 694.951C673.446 685.95 695.5 654.266 688.556 619.577C686.754 610.57 684.222 604.895 680.291 596.688L681.142 596.282Z"/><path fill="#0A0A0A" d="M321.952 613.821L322.605 614.568C303.165 662.025 329.639 703.701 379.749 712.125C387.591 713.444 395.13 712.993 403.022 712.283L404.913 713.325C371.106 723.013 329.1 703.327 317.602 669.714C310.766 649.729 313.217 632.655 321.952 613.821Z"/><path fill="#0A0A0A" d="M294.198 625.731L295.105 626.541C285.299 647.628 281.761 666.029 290.135 688.642C297.198 707.238 311.246 722.34 329.283 730.728C342.515 736.799 356.118 738.866 370.62 738.432L369.373 739.48C352.628 740.944 338.506 739.407 323.441 731.652C305.664 722.341 292.297 706.37 286.262 687.231C279.243 664.835 283.543 645.929 294.198 625.731Z"/><path fill="#0A0A0A" d="M697.294 612.63L697.926 611.539C703.368 623.306 707.085 636.288 706.466 649.329C704.519 690.379 668.002 715.117 629.104 711.855C630.834 710.876 632.648 711.176 634.799 710.606C638.342 710.239 641.623 709.826 645.135 709.216C677.68 703.565 704.069 677.796 704.194 643.706C704.236 632.271 701.522 623.212 697.294 612.63Z"/><path fill="#0A0A0A" d="M739.835 653.1C742.986 673.13 737.979 693.587 725.935 709.898C714.37 725.578 696.977 735.94 677.682 738.645C673.818 739.203 668.672 739.591 664.759 739.426C663.436 739.078 662.701 739.032 661.449 738.754C662.304 738.482 663.235 738.304 664.132 738.033C696.302 736.561 723.157 718.514 734.078 687.702C738.172 676.154 738.355 666.403 737.812 654.381C739.121 652.398 739.24 655.491 739.696 653.602L739.835 653.1Z"/><path fill="#0A0A0A" d="M715.312 626.221L716.002 625.105C723.057 644.807 725.163 665.781 715.915 685.216C707.955 701.614 693.853 714.215 676.666 720.287C666.255 723.968 653.998 725.819 642.988 724.437C645.582 724.144 645.701 724.275 648.136 723.547C656.791 722.85 663.841 721.951 672.181 719.222C690.035 713.212 704.8 700.409 713.278 683.587C722.356 665.308 721.809 645.203 715.312 626.221Z"/><path fill="#0A0A0A" d="M301.064 639.559L302.236 640.117C299.089 658.291 301.391 676.241 312.103 691.622C324.046 708.745 342.28 720.446 362.822 724.17C366.91 724.885 370.723 725.224 374.853 725.558C378.24 726.385 379.828 725.534 381.925 726.84C374.028 727.702 365.543 727.031 357.778 725.438C337.842 721.285 320.373 709.383 309.213 692.35C298.925 676.426 297.067 657.811 301.064 639.559Z"/><path fill="#414041" d="M483.246 740.899C495.254 740.148 508.562 740.723 520.668 740.585C546.295 740.293 572.039 741.302 597.659 741.956C601.403 742.055 606.356 742.914 610.252 743.213L548.61 742.094C541.494 741.976 532.65 742.274 525.786 741.934C506.177 742.25 486.149 742.073 466.509 742.097C461.426 742.606 443.418 742.64 438.19 742.397L432.523 742.518L434.924 741.479C437.106 741.508 439.288 741.514 441.471 741.496C444.533 740.919 446.646 740.982 449.803 741.095C460.775 740.993 472.316 740.703 483.246 740.899Z"/><path fill="#0A0A0A" d="M449.803 741.095C460.775 740.993 472.316 740.703 483.246 740.899C498.367 741.808 519.86 741.106 535.685 741.206C532.782 741.35 528.61 741.493 525.786 741.934C506.177 742.25 486.149 742.073 466.509 742.097C461.426 742.606 443.418 742.64 438.19 742.397L432.523 742.518L434.924 741.479C437.106 741.508 439.288 741.514 441.471 741.496C444.533 740.919 446.646 740.982 449.803 741.095Z"/><path fill="#666567" d="M438.19 742.397C441.448 741.433 462.398 741.774 466.509 742.097C461.426 742.606 443.418 742.64 438.19 742.397Z"/><path fill="#666567" d="M441.471 741.496C444.533 740.919 446.646 740.982 449.803 741.095C446.574 742.021 444.918 741.881 441.471 741.496Z"/><path fill="#AFADAF" d="M448.873 728.25C461.881 727.866 567.519 726.962 573.056 729.103C571.201 729.626 570.721 729.397 568.726 729.058L568.076 728.943L490.724 729.019C475.014 728.984 458.03 728.517 442.479 729.202L442.421 728.927C444.653 728.608 446.635 728.431 448.873 728.25Z"/><path fill="#AFADAF" d="M477.619 715.79C487.381 715.188 498.355 716.197 508.315 715.898C519.046 715.575 530.078 715.655 540.806 715.916C547.106 716.069 557.269 715.901 563.304 717.286L563.6 717.281C562.433 717.397 552.409 716.979 550.395 716.973C528.379 716.555 506.382 717.281 484.366 716.778C476.387 716.596 468.134 716.752 460.169 716.973C465.398 715.684 472.126 715.893 477.619 715.79Z"/><path fill="#414041" d="M557.876 666.379C552.361 666.299 544.527 663.462 538.861 662.153C531.684 660.533 524.394 659.46 517.055 658.945C507.379 658.227 497.65 658.896 488.163 660.933C486.07 661.392 478.028 664.524 476.865 663.496C480.519 663.44 484.556 661.124 488.169 660.132C507.693 654.769 527.909 657.458 546.912 663.524C550.442 664.65 553.794 666.162 557.522 665.436L557.876 666.379Z"/><path fill="#D5D4D5" d="M490.618 704.271C500.148 703.848 540.629 703.79 548.711 705.958L548.723 706.406C545.647 706.236 542.538 706.172 539.504 705.597C518.016 704.887 499.858 705.337 478.686 705.535C481.616 704.557 487.3 704.458 490.618 704.271Z"/><path fill="#AFADAF" d="M503.412 674.368C506.815 673.83 510.281 673.825 513.686 674.354C521.022 674.138 539.659 676.561 546.589 678.114C545.739 678.286 521.885 676.061 518.957 675.684C506.398 674.069 497.178 676.656 485.322 676.949L484.687 676.959L484.933 677.023L485.09 676.41C490.211 675.498 498.317 674.408 503.412 674.368Z"/><path fill="#D5D4D5" d="M503.412 674.368C506.815 673.83 510.281 673.825 513.686 674.354C510.262 674.399 506.837 674.404 503.412 674.368Z"/><path fill="#AFADAF" d="M503.228 666.268C505.149 666.075 507.078 665.97 509.009 665.953C519.444 665.784 531.428 666.477 541.328 669.614C543.259 670.226 545.872 669.886 547.224 671.188C537.845 669.585 529.635 668.159 520.111 667.125C510.494 666.98 501.592 666.939 492.008 668.439C486.988 669.224 482.577 670.431 477.56 671.237L477.366 670.859C485.819 668.5 494.479 666.963 503.228 666.268Z"/><path fill="#0A0A0A" d="M727.205 620.164C733.092 631.886 737.808 639.429 739.835 653.1L739.696 653.602C739.24 655.491 739.121 652.398 737.812 654.381C737.575 653.746 737.565 653.699 737.505 653.014C736.654 643.355 731.692 630.12 726.935 621.652L727.205 620.164Z"/><path fill="#414041" d="M355.163 504.071L356.097 504.686C349.502 517.723 341.201 530.39 334.812 543.595C333.431 546.448 331.711 549.054 330.46 551.995L329.879 551.691C337.7 538.687 343.786 523.307 351.842 510.293C353.04 508.358 353.75 505.961 355.163 504.071Z"/><path fill="#AFADAF" d="M504.379 682.74C508.29 681.618 525.879 683.935 530.989 683.582C531.336 683.558 532.811 683.61 532.943 684.18L532.869 684.293C532.499 684.489 523.886 684.009 522.375 684.025C517.288 684.055 499.67 683.545 493.519 683.789C493.413 683.793 493.449 683.661 493.466 683.516C494.367 682.845 502.568 682.875 504.379 682.74Z"/><path fill="#AFADAF" d="M689.257 536.31C693.887 542.177 698.115 554.201 702.543 560.745C703.213 561.734 706.818 567.044 706.166 567.907C705.341 567.773 689.513 539.32 688.445 536.58L689.257 536.31Z"/><path fill="#666567" d="M675.21 529.891C680.139 537.871 684.155 546.908 689.208 554.864C689.8 555.795 692.365 558.984 691.753 560.045C691.075 559.795 675.102 532.727 673.968 530.026L675.21 529.891Z"/><path fill="#AFADAF" d="M374.636 513.624C373.4 516.409 359.286 540.438 358.266 540.885C357.698 540.23 361.107 535.19 361.45 534.729C365.541 529.214 369.508 518.317 373.617 513.317L374.636 513.624Z"/><path fill="#666567" d="M625.397 513.111C626.618 514.305 642.234 538.435 642.204 538.585C641.631 538.836 641.182 538.035 640.925 537.62C636.084 529.813 629.936 522.38 625.015 514.698L623.944 513.02L625.397 513.111Z"/><path fill="#AFADAF" d="M358.002 523.566C357.607 524.743 354.407 530.181 353.647 531.498L342.675 550.877C342.424 551.33 342.033 552.481 341.432 552.242C341.428 552.218 356.005 524.662 357.162 523.275L358.002 523.566Z"/><path fill="#666567" d="M408.142 505.706C403.858 512.986 396.664 520.419 392.773 528.366C392.405 529.118 391.446 531.529 390.992 531.778C390.649 531.636 390.771 530.833 390.839 530.736C394.771 525.143 402.3 509.3 406.965 505.282L408.142 505.706Z"/><path fill="#666567" d="M387.731 509.283C383.438 516.517 378.987 523.652 374.502 530.768C374.164 531.304 373.779 532.72 373.161 532.097C373.163 531.824 385.632 510.167 386.688 508.798L387.731 509.283Z"/><path fill="#0A0A0A" d="M678.24 516.326C679.902 518.613 687.512 533.072 689.257 536.31L688.445 536.58C684.931 530.244 680.918 523.049 677.301 516.792L678.24 516.326Z"/><path fill="#414041" d="M309.636 617.827L310.086 618.666C306.824 623.887 303.612 634.022 302.236 640.117L301.064 639.559C302.836 630.616 306.249 625.694 309.636 617.827Z"/><path fill="#414041" d="M385.889 525.271C386.813 523.927 387.444 522.692 388.28 521.345L398.198 505.326C398.926 504.158 398.487 504.807 399.223 503.773L399.713 505.386C395.484 512.119 390.409 518.586 386.539 525.514L385.889 525.271Z"/><path fill="#414041" d="M649.671 521.655C654.072 527.671 657.481 535.555 661.582 541.789L660.998 541.993C659.611 538.248 651.246 526.577 648.746 522.253L649.671 521.655Z"/><path fill="#939193" d="M697.294 612.63C696.667 611.5 696.461 611.177 695.978 609.98C694.853 607.207 693.496 604.533 691.921 601.987C691.324 600.983 687.01 594.892 687.235 593.677L687.266 593.665C689.887 595.98 696.933 608.376 697.926 611.539L697.294 612.63Z"/><path fill="#414041" d="M636.248 515.335C640.379 521.144 644.329 528.247 648.124 534.321L647.531 534.678C644.07 528.359 638.9 521.649 634.966 515.519L636.248 515.335Z"/><path fill="#414041" d="M661.143 523.578C663.786 527.84 668.702 536.602 671.033 541.005L670.602 541.82C667.185 536.054 663.588 529.596 659.982 523.983L661.143 523.578Z"/><path fill="#0A0A0A" d="M357.162 523.275C360.321 517.971 363.485 510.654 366.71 505.645L367.648 506.127L367.218 506.931C364.423 512.378 360.419 518.021 358.002 523.566L357.162 523.275Z"/><path fill="#AFADAF" d="M309.636 617.827C310.134 616.004 318.846 603.219 320.146 602.585C320.195 602.601 320.243 602.617 320.292 602.634C320.518 603.422 317.243 608.155 316.689 608.708C313.721 611.67 312.213 615.175 310.086 618.666L309.636 617.827Z"/><path fill="#D5D4D5" d="M341.691 593.691C344.379 589.224 348.253 585.372 350.803 580.781C351.202 580.062 351.844 579.577 352.662 579.732L352.54 580.196L352.578 580.193C350.342 583.869 344.863 591.067 342.129 594.546L341.691 593.691Z"/><path fill="#666567" d="M707.867 608.771C711.154 614.189 713.681 619.208 716.002 625.105L715.312 626.221C713.598 621.691 710.132 613.461 707.436 609.589L707.867 608.771Z"/><path fill="#AFADAF" d="M326.038 606.315C326.675 604.641 335.55 590.807 336.627 590.788C337.175 591.319 332.367 597.597 331.69 598.646C330.102 601.104 328.672 603.785 326.977 606.135L326.611 606.653L326.038 606.315Z"/><path fill="#E8E8E8" d="M626.694 542.927L627.578 543.123C628.887 543.396 630.073 544.069 630.171 545.508C631.771 546.929 632.38 547.525 633.706 549.199L633.094 549.888L633.543 550.498L632.696 551.133C631.632 549.885 630.687 548.546 629.706 547.23C628.701 545.823 627.639 544.367 626.694 542.927Z"/><path fill="#939193" d="M630.171 545.508C631.771 546.929 632.38 547.525 633.706 549.199L633.094 549.888C631.654 548.355 631.003 547.362 630.171 545.508Z"/><path fill="#AFADAF" d="M416.43 742.829C422.54 741.808 428.731 741.356 434.924 741.479L432.523 742.518C428.934 742.851 419.024 743.06 415.51 742.774L416.43 742.829Z"/><path fill="#0A0A0A" d="M405.805 517.903C407.73 514.898 411.969 509.222 414.286 506.326L415.135 507.108C412.424 510.75 409.121 514.316 406.565 518.007L405.805 517.903Z"/><path fill="#414041" d="M374.853 725.558C380.125 725.466 384.81 725.335 390.072 725.055L389.968 725.912C387.295 726.12 384.673 726.667 381.925 726.84C379.828 725.534 378.24 726.385 374.853 725.558Z"/><path fill="#414041" d="M618.85 515.416C621.363 518.671 623.7 522.574 626.132 525.834L625.629 526.535C624.441 524.469 622.278 521.823 620.782 519.907C619.638 518.446 618.521 516.963 617.432 515.46L618.85 515.416Z"/><path fill="#AFADAF" d="M671.033 541.005C673.538 544.306 675.467 549.062 677.874 552.669L677.676 553.005L678.086 553.029C679.857 557.163 670.903 542.671 670.602 541.82L671.033 541.005Z"/><path fill="#D5D4D5" d="M648.124 534.321C649.016 535.187 654.262 542.937 653.938 543.996L653.68 544.086C652.732 543.726 647.911 535.814 647.531 534.678L648.124 534.321Z"/><path fill="#414041" d="M670.948 591.039C668.798 587.32 665.295 581.413 663.507 577.698C666.182 581.328 668.952 584.906 671.035 588.921L671.523 589.817L670.948 591.039Z"/><path fill="#0A0A0A" d="M426.996 507.877C429.249 504.909 431.569 501.993 433.953 499.129L435.23 499.713C433.233 501.809 428.942 506.415 427.43 508.543L426.996 507.877Z"/><path fill="#AFADAF" d="M329.879 551.691L330.46 551.995C330.013 553.411 324.761 563.662 324.042 564.026L323.838 563.926C323.707 563.551 329.048 552.812 329.879 551.691Z"/><path fill="#414041" d="M609.41 513.063C610.27 514.05 615.668 521.571 615.395 522.327L615.341 522.35C614.668 522.19 608.794 514.114 607.936 512.96L609.41 513.063Z"/><path fill="#414041" d="M654.861 738.832C654.592 738.798 654.454 738.842 654.277 738.647C654.344 737.672 659.025 738.036 659.771 738.053C661.293 737.997 662.608 738.002 664.132 738.033C663.235 738.304 662.304 738.482 661.449 738.754C662.701 739.032 663.436 739.078 664.759 739.426C659.963 739.614 659.478 739.24 654.861 738.832Z"/><path fill="#939193" d="M654.861 738.832C654.592 738.798 654.454 738.842 654.277 738.647C654.344 737.672 659.025 738.036 659.771 738.053C658.032 738.397 656.594 738.574 654.861 738.832Z"/><path fill="#AFADAF" d="M678.865 594.113C678 592.779 672.636 584.698 672.648 583.739L672.7 583.734C673.988 584.468 678.094 591.119 678.916 592.528L679.325 593.215L678.865 594.113Z"/><path fill="#AFADAF" d="M299.69 616.764C300.604 615.091 304.215 609.386 305.386 608.155L305.675 608.095C305.833 609.154 301.069 616.344 300.103 617.587L299.69 616.764Z"/><path fill="#0A0A0A" d="M299.69 616.764L300.103 617.587C298.251 620.52 296.805 623.551 295.105 626.541L294.198 625.731C295.918 622.548 297.832 619.825 299.69 616.764Z"/><path fill="#0A0A0A" d="M623.226 710.286C627.068 710.628 630.934 710.514 634.799 710.606C632.648 711.176 630.834 710.876 629.104 711.855C627.476 711.818 626.188 711.591 624.533 711.543L623.226 710.286Z"/><path fill="#AFADAF" d="M386.539 525.514C384.97 527.974 383.521 530.502 381.717 532.82C381.609 532.959 380.605 534.748 380.177 534.248C380.029 533.541 385.117 526.111 385.889 525.271L386.539 525.514Z"/><path fill="#666567" d="M726.935 621.652C724.98 618.557 723.434 615.123 721.459 612.017C721.529 611.524 721.569 611.499 721.202 611.147C721.233 611.091 721.264 611.035 721.295 610.98L721.394 610.974C721.626 611.163 721.532 611.069 721.685 611.253L721.543 611.465L721.957 611.67C723.534 614.456 725.526 617.33 727.205 620.164L726.935 621.652Z"/><path fill="#414041" d="M637.062 723.396C640.677 723.634 644.461 723.451 648.136 723.547C645.701 724.275 645.582 724.144 642.988 724.437C641.617 724.523 640.813 724.46 639.438 724.372C638.624 724.405 638.648 724.471 638.067 724.038L636.278 723.831L637.062 723.396Z"/><path fill="#AFADAF" d="M638.067 724.038C638.842 724.025 638.815 723.973 639.438 724.372C638.624 724.405 638.648 724.471 638.067 724.038Z"/><path fill="#414041" d="M341.691 593.691L342.129 594.546L341.724 595.234C340.256 597.675 339.092 599.796 337.707 602.235L337.087 601.249C337.817 599.613 340.602 595.374 341.691 593.691Z"/><path fill="#D5D4D5" d="M520.873 693.694C522.669 693.475 529.521 692.731 530.51 694.224C528.478 694.798 523.084 693.98 520.873 693.694Z"/><path fill="#666567" d="M624.533 711.543C623.486 711.438 615.653 710.697 615.802 709.725C616.416 709.439 622.43 710.112 623.226 710.286L624.533 711.543Z"/><path fill="#AFADAF" d="M367.977 570.518C368.064 570.61 368.151 570.701 368.238 570.792C368.242 570.835 363.108 577.226 362.502 578.063C360.879 576.644 366.824 571.668 367.977 570.518Z"/><path fill="#666567" d="M654.859 570.933L655.158 570.972C657.026 573.664 658.412 575.418 660.27 578.296L659.324 578.727C658.219 576.831 655.337 572.689 654.859 570.933Z"/><path fill="#414041" d="M326.038 606.315L326.611 606.653C326.346 607.163 326.081 607.673 325.817 608.183L322.605 614.568L321.952 613.821C323.191 611.255 324.605 608.778 326.038 606.315Z"/><path fill="#AFADAF" d="M418.541 511.506C417.92 512.419 414.452 517.484 413.531 517.473C413.501 517.329 413.471 517.184 413.441 517.039L413.721 517.044L413.631 516.618C414.567 515.188 416.648 512.371 417.805 511.203L418.541 511.506Z"/><path fill="#0A0A0A" d="M367.989 574.109C368.772 572.926 371.708 568.929 372.656 568.317L372.669 568.28C373.163 568.516 372.085 569.805 371.938 570.008C370.734 571.662 369.835 573.527 368.728 575.221L367.989 574.109Z"/><path fill="#AFADAF" d="M349.034 591.306C350.217 588.983 351.922 586.213 353.886 584.499C352.955 586.679 350.871 590.054 349.51 591.988L349.034 591.306Z"/><path fill="#0A0A0A" d="M393.263 547.16C393.249 548.666 390.869 551.919 389.847 553.554L388.954 552.932L389.564 551.48C390.543 550.679 392.262 548.3 393.263 547.16Z"/><path fill="#414041" d="M349.034 591.306L349.51 591.988C348.148 594.392 347.375 596.255 346.171 598.687L345.562 597.764C346.554 595.563 347.94 593.481 349.034 591.306Z"/><path fill="#0A0A0A" d="M417.805 511.203C419.097 509.489 420.339 507.608 421.744 505.998L422.644 506.643C421.331 508.21 419.731 509.927 418.541 511.506L417.805 511.203Z"/><path fill="#0A0A0A" d="M577.228 677.207C576.455 676.977 572.453 675.855 572.341 674.841C572.387 674.802 572.433 674.764 572.479 674.725C573.769 674.611 575.506 675.832 576.762 675.907C577.234 675.935 577.916 676.282 577.895 676.273L577.228 677.207Z"/><path fill="#AFADAF" d="M406.565 518.007C406.061 518.761 403.151 523.169 402.433 522.837C402.623 521.459 404.714 518.865 405.805 517.903L406.565 518.007Z"/><path fill="#0A0A0A" d="M647.74 566.689C646.095 564.291 644.29 561.345 642.885 558.823C644.545 560.795 646.588 563.121 648.141 565.138L647.74 566.689Z"/><path fill="#0A0A0A" d="M451.759 677.792L452.07 678.632C450.513 679.127 449.055 679.865 447.445 680.445L446.897 679.145C448.515 678.647 450.121 678.268 451.759 677.792Z"/><path fill="#D5D4D5" d="M707.436 609.589C706.945 608.993 704.838 605.828 705.248 605.211C705.982 605.04 707.335 607.491 707.556 608.04L707.867 608.771L707.436 609.589Z"/><path fill="#AFADAF" d="M627.753 527.941C628.74 529.858 629.323 530.054 630.381 532.495C628.965 531.264 628.017 530.192 626.989 528.583L627.753 527.941Z"/><path fill="#AFADAF" d="M371.973 533.348C373.235 534.573 370.957 536.493 370.032 537.891C369.932 537.795 369.832 537.699 369.732 537.604C369.637 536.925 370.634 535.624 371.001 535.003L371.973 533.348Z"/><path fill="#414041" d="M406.479 711.915C407.892 711.602 410.256 711.259 411.639 711.609L411.674 711.681C411.499 711.946 407.593 712.763 406.943 712.934L406.479 711.915Z"/><path fill="#414041" d="M370.62 738.432L372.875 738.46C373.23 738.466 373.828 738.5 374.068 738.769C374.258 739.762 369.927 739.484 369.373 739.48L370.62 738.432Z"/><path fill="#414041" d="M599.261 508.791C599.73 509.328 601.583 511.492 601.228 512.24C600.586 512.386 598.737 509.755 598.355 509.221L599.261 508.791Z"/><path fill="#D5D4D5" d="M354.635 583.534C355.75 580.955 356.38 580.081 358.863 578.581C357.761 580.128 356.089 582.323 354.635 583.534Z"/><path fill="#414041" d="M441.844 686.29L442.304 687.02C441.199 687.352 440.36 687.633 439.271 688.026L438.68 688.233L437.822 687.258C439.232 686.972 440.462 686.634 441.844 686.29Z"/><path fill="#0A0A0A" d="M403.022 712.283C404.285 712.076 405.21 712.004 406.479 711.915L406.943 712.934C406.265 713.057 405.588 713.188 404.913 713.325L403.022 712.283Z"/><path fill="#939193" d="M390.072 725.055C390.802 724.882 393.183 724.07 393.705 724.829C393.499 725.696 390.64 725.815 389.968 725.912L390.072 725.055Z"/><path fill="#666567" d="M602.71 698.484C602.227 698.386 598.91 697.873 598.806 697.266C599.428 696.712 601.382 697.109 602.121 697.3L602.71 698.484Z"/><path fill="#666567" d="M451.759 677.792L452.466 677.508C456.215 675.894 455.708 676.926 452.07 678.632L451.759 677.792Z"/><path fill="#414041" d="M425.025 698.287C425.521 698.151 427.712 697.335 428.156 697.804C428.007 698.435 425.282 699.401 424.711 699.639L425.025 698.287Z"/><path fill="#D5D4D5" d="M456.669 716.465C457.222 716.473 457.776 716.475 458.329 716.471C458.452 716.47 461.571 716.357 459.8 717.205L459.359 717.433C458.563 717.46 457.762 717.519 456.966 717.529C456.679 717.533 456.286 717.532 456.086 717.289C456.056 717.253 456.043 717.196 456.053 717.151C456.107 716.889 456.59 716.54 456.669 716.465Z"/><path fill="#D5D4D5" d="M661.582 541.789C664.23 544.669 662.419 545.789 660.998 541.993L661.582 541.789Z"/><path fill="#D5D4D5" d="M412.413 517.795C413.688 518.931 412.66 519.448 411.574 520.826C410.423 520.079 411.699 519.054 412.413 517.795Z"/><path fill="#414041" d="M587.149 685.837C588.201 685.967 589.073 686.078 590.12 686.272L589.325 687.301C588.471 687.062 587.612 686.842 586.749 686.64L587.149 685.837Z"/><path fill="#414041" d="M465.365 667.213C465.96 667.045 467.878 666.359 468.498 666.716L468.538 666.787C467.999 667.426 466.55 667.971 465.744 668.257L465.365 667.213Z"/><path fill="#414041" d="M679.325 593.215C679.92 594.244 680.526 595.266 681.142 596.282L680.291 596.688C679.783 595.752 679.432 595.045 678.865 594.113L679.325 593.215Z"/><path fill="#939193" d="M626.132 525.834C626.719 526.543 627.212 527.205 627.753 527.941L626.989 528.583C626.546 527.893 626.093 527.211 625.629 526.535L626.132 525.834Z"/><path fill="#D5D4D5" d="M574.76 729.275C575.751 728.902 575.82 728.955 576.864 729.244C575.931 729.672 575.717 729.667 574.76 729.275Z"/><path fill="#939193" d="M426.996 507.877L427.43 508.543C427.19 508.873 426.298 510.415 425.715 510.217C425.343 509.568 426.69 508.249 426.996 507.877Z"/><path fill="#D5D4D5" d="M636.278 723.831C633.96 723.726 635.176 722.385 637.062 723.396L636.278 723.831Z"/><path fill="#D5D4D5" d="M356.733 543.122C356.952 543.188 357.091 543.18 357.205 543.331C357.121 543.547 356.926 543.641 356.723 543.809C356.546 543.703 356.386 543.647 356.309 543.495C356.393 543.306 356.528 543.267 356.733 543.122Z"/><path fill="#AFADAF" d="M353.886 584.499C353.97 583.782 353.947 583.749 354.635 583.534C354.598 584.265 354.578 584.259 353.886 584.499Z"/><path fill="#D5D4D5" d="M630.381 532.495C631.072 532.73 631.094 532.72 631.105 533.452C630.426 533.234 630.487 533.168 630.381 532.495Z"/><path fill="#666567" d="M586.749 686.64C586.411 686.485 585.34 686.159 585.234 685.725C585.277 685.667 585.321 685.61 585.365 685.552C586.114 685.4 586.45 685.564 587.149 685.837L586.749 686.64Z"/><path fill="#AFADAF" d="M441.844 686.29C442.432 686.046 442.52 685.93 443.1 686.082C443.275 686.499 442.567 686.818 442.304 687.02L441.844 686.29Z"/><path fill="#D5D4D5" d="M321.461 600.063C321.526 600.062 321.591 600.061 321.655 600.06C321.653 600.133 321.65 600.206 321.648 600.28C321.59 600.325 321.532 600.37 321.475 600.415C321.47 600.298 321.466 600.18 321.461 600.063Z"/><path fill="#D5D4D5" d="M654.859 570.933C654.712 570.63 654.566 570.326 654.419 570.023L654.454 569.98C654.869 570.379 654.867 570.45 655.158 570.972L654.859 570.933Z"/><path fill="#D5D4D5" d="M663.686 546.103C664.006 546.185 663.984 546.23 664.216 546.515C663.802 546.415 663.899 546.459 663.686 546.103Z"/>
  </g>
</svg>
